<?xml version="1.0" encoding="utf-8"?>
<!-- Generator: Adobe Illustrator 23.0.3, SVG Export Plug-In . SVG Version: 6.00 Build 0)  -->
<svg version="1.1" id="Layer_1" xmlns="http://www.w3.org/2000/svg" xmlns:xlink="http://www.w3.org/1999/xlink" x="0px" y="0px"
	 viewBox="0 0 138 139.1" style="enable-background:new 0 0 138 139.1;" xml:space="preserve">
<style type="text/css">
	.st0{fill:#FFFFFF;}
</style>
<path class="st0" d="M90.7,86.2V53l28.5,16.6L90.7,86.2z M66.3,83.2c-7.5,0-13.6-6.1-13.6-13.7c0-7.5,6.1-13.7,13.6-13.7
	c7.5,0,13.5,6.1,13.5,13.7C79.9,77.1,73.8,83.2,66.3,83.2 M41.9,85.8c-9,0-16.3-7.2-16.3-16.2c0-8.9,7.3-16.2,16.3-16.2V85.8z
	 M68.9,0C30.9,0,0,31.1,0,69.6c0,38.4,30.9,69.6,68.9,69.6s68.9-31.1,68.9-69.6C137.9,31.1,107,0,68.9,0"/>
</svg>
