<?xml version="1.0" encoding="utf-8"?>
<!-- Generator: Adobe Illustrator 23.0.3, SVG Export Plug-In . SVG Version: 6.00 Build 0)  -->
<svg version="1.1" id="Layer_1" xmlns="http://www.w3.org/2000/svg" xmlns:xlink="http://www.w3.org/1999/xlink" x="0px" y="0px"
	 viewBox="0 0 275.8 275.2" style="enable-background:new 0 0 275.8 275.2;" xml:space="preserve">
<style type="text/css">
	.st0{fill:#030202;}
	.st1{fill:#1F140F;}
</style>
<g>
	<g>
		<g>
			<path d="M137.6,275.2C61.7,275.2,0,213.5,0,137.6S61.7,0,137.6,0s137.6,61.7,137.6,137.6S213.5,275.2,137.6,275.2z M137.6,11.7
				c-69.4,0-125.9,56.5-125.9,125.9s56.5,125.9,125.9,125.9s125.9-56.5,125.9-125.9S207,11.7,137.6,11.7z"/>
		</g>
		<g>
			<g>
				<g>
					<g>
						<path class="st0" d="M54.9,137.6c0,16.9,13.9,30.7,31.1,30.7V107C68.8,107,54.9,120.7,54.9,137.6z"/>
					</g>
				</g>
			</g>
			<g>
				<g>
					<g>
						<polygon class="st0" points="179.3,106.2 233.8,137.6 179.3,169.1 						"/>
					</g>
				</g>
			</g>
			<g>
				<path class="st0" d="M132.7,117.1c-11.3,0-20.5,9.2-20.5,20.5s9.2,20.5,20.5,20.5c11.3,0,20.5-9.2,20.5-20.5
					S144,117.1,132.7,117.1z M132.7,152.6c-8.3,0-15-6.7-15-15c0-8.3,6.7-15,15-15c8.3,0,15,6.7,15,15
					C147.7,145.9,140.9,152.6,132.7,152.6z"/>
			</g>
		</g>
	</g>
	<g>
		<path class="st1" d="M132.7,162.1c-13.5,0-24.4-11-24.4-24.4s11-24.4,24.4-24.4s24.4,11,24.4,24.4S146.1,162.1,132.7,162.1z
			 M132.7,121c-9.2,0-16.6,7.5-16.6,16.6c0,9.2,7.5,16.6,16.6,16.6s16.6-7.5,16.6-16.6C149.3,128.5,141.8,121,132.7,121z"/>
	</g>
</g>
</svg>
